<?xml version="1.0" standalone="no"?>
<!DOCTYPE svg PUBLIC "-//W3C//DTD SVG 20010904//EN"
 "http://www.w3.org/TR/2001/REC-SVG-20010904/DTD/svg10.dtd">
<svg version="1.0" xmlns="http://www.w3.org/2000/svg"
 width="512.000000pt" height="512.000000pt" viewBox="0 0 512.000000 512.000000"
 preserveAspectRatio="xMidYMid meet">
<metadata>
Created by potrace 1.14, written by Peter Selinger 2001-2017
</metadata>
<g transform="translate(0.000000,512.000000) scale(0.100000,-0.100000)"
fill="#000000" stroke="none">
<path d="M4210 4578 c-178 -27 -308 -168 -318 -349 -4 -65 -1 -91 18 -142 58
-162 205 -262 372 -252 213 13 366 185 353 398 -13 215 -212 376 -425 345z"/>
<path d="M4730 3836 c-141 -39 -218 -193 -161 -320 47 -103 154 -160 257 -138
64 13 111 43 146 92 104 144 19 341 -159 369 -26 4 -64 3 -83 -3z"/>
<path d="M541 3320 l-44 -5 -61 -220 -62 -220 65 -94 65 -94 -50 -46 c-28 -25
-77 -69 -110 -98 -32 -28 -71 -62 -85 -75 -14 -12 -57 -51 -95 -84 -38 -34
-90 -81 -117 -104 l-47 -42 0 -97 0 -97 43 -3 c23 -1 58 -4 77 -6 19 -2 78 -6
130 -10 52 -4 103 -9 113 -11 10 -2 60 -6 112 -9 94 -6 95 -6 157 28 35 19
129 69 210 111 l148 77 262 -122 c145 -67 310 -144 366 -170 57 -27 105 -49
107 -49 2 0 65 -29 140 -65 76 -36 139 -65 141 -65 2 0 60 -27 130 -60 69 -33
128 -60 130 -60 4 0 253 -117 274 -129 16 -9 44 -55 134 -226 32 -60 61 -114
65 -120 4 -5 7 -146 7 -312 -1 -285 0 -301 16 -286 22 20 220 221 328 333 45
47 99 103 121 125 37 39 40 48 74 200 20 88 38 161 40 163 2 3 44 13 92 23 48
10 142 30 208 44 66 14 143 30 170 35 57 12 65 13 160 34 39 8 82 17 95 20 14
2 102 21 195 41 94 20 181 38 195 41 14 2 39 7 55 11 17 4 36 8 42 9 7 1 59
12 115 24 99 22 106 25 186 89 46 36 95 76 110 89 15 12 59 48 99 80 l72 57 0
546 1 547 -107 67 -108 67 -1515 0 -1515 0 -140 -67 c-77 -37 -180 -86 -230
-110 -49 -23 -184 -88 -299 -144 -115 -56 -211 -100 -212 -98 -2 2 8 32 22 67
17 41 23 69 17 80 -8 17 -34 41 -173 160 -36 30 -105 91 -155 134 -120 106
-114 102 -164 96z"/>
</g>
</svg>
